<?xml version="1.0" standalone="no"?>
<!DOCTYPE svg PUBLIC "-//W3C//DTD SVG 20010904//EN"
 "http://www.w3.org/TR/2001/REC-SVG-20010904/DTD/svg10.dtd">
<svg version="1.0" xmlns="http://www.w3.org/2000/svg"
 width="512.000000pt" height="512.000000pt" viewBox="0 0 512.000000 512.000000"
 preserveAspectRatio="xMidYMid meet">

<g transform="translate(0.000000,512.000000) scale(0.100000,-0.100000)"
fill="#000000" stroke="none">
<path d="M732 5110 c-47 -19 -53 -59 -50 -333 l3 -252 83 -3 82 -3 0 273 c-1
287 -1 292 -47 316 -25 14 -39 14 -71 2z"/>
<path d="M3104 4327 l-29 -25 0 -274 0 -273 83 -3 82 -3 0 274 c0 308 -1 312
-71 323 -29 5 -41 1 -65 -19z"/>
<path d="M1925 3998 c-43 -25 -44 -31 -45 -315 l0 -273 86 0 85 0 -3 276 -3
276 -28 24 c-30 26 -61 30 -92 12z"/>
<path d="M4324 3320 c-52 -21 -54 -34 -54 -322 l0 -268 85 0 85 0 0 254 c0
285 -4 310 -56 332 -18 8 -35 14 -36 13 -2 0 -13 -4 -24 -9z"/>
<path d="M680 2091 c0 -129 4 -220 11 -241 14 -40 65 -65 103 -51 53 21 56 37
56 278 l0 223 -85 0 -85 0 0 -209z"/>
<path d="M3077 1533 c-12 -11 -8 -417 4 -452 20 -56 91 -70 134 -26 l25 24 0
231 0 230 -78 0 c-43 0 -82 -3 -85 -7z"/>
<path d="M1880 971 c0 -212 1 -230 20 -253 39 -50 118 -37 139 22 7 21 11 113
11 246 l0 214 -85 0 -85 0 0 -229z"/>
<path d="M4270 287 c0 -220 1 -234 20 -255 44 -47 111 -36 136 23 11 28 14 79
12 248 l-3 212 -82 3 -83 3 0 -234z"/>
</g>
</svg>
